<?xml version="1.0" encoding="utf-8"?>
<svg viewBox="19.1 18.1 93.9 93.8" width="93.9" height="93.8" xmlns="http://www.w3.org/2000/svg">
  <defs>
    <style type="text/css">
	.st0{fill:url(#SVGID_1_);}
	.st1{fill:#1B1B1B;}
</style>
  </defs>
  <linearGradient id="SVGID_1_" gradientUnits="userSpaceOnUse" x1="26.1235" y1="134.5257" x2="105.7328" y2="84.7802" gradientTransform="matrix(1 0 0 -1 0.1328 174.6614)">
    <stop offset="0" style="stop-color:#F49C24"/>
    <stop offset="0.2583" style="stop-color:#EF7B1D"/>
    <stop offset="0.5664" style="stop-color:#EA5B17"/>
    <stop offset="0.8248" style="stop-color:#E74712"/>
    <stop offset="1" style="stop-color:#E64011"/>
  </linearGradient>
  <path class="st0" d="M22.6,82.7c-2.2-5.5-3.5-11.4-3.5-17.7c0-25.9,21-46.9,46.9-46.9c3,0,6,0.3,8.8,0.8L47.6,36 c-3.5,2.3-5.1,4.7-5.1,9.9c0,0,0,0,0,0V66c0,3-0.6,4.7-3.2,6.3C39.3,72.4,22.6,82.7,22.6,82.7z M113,65c0,25.9-21,46.9-46.9,46.9 c-17.6,0-32.9-9.7-40.9-24l18.7-11.7c3.2-2.1,4.5-3.9,4.5-8.3V45.9c0-2.4,0.5-3.9,3.1-5.6l31-19.4C100.3,27.6,113,44.8,113,65z M74.4,65c0-4.6-3.8-8.4-8.4-8.4c-4.6,0-8.4,3.8-8.4,8.4s3.8,8.4,8.4,8.4C70.7,73.4,74.4,69.6,74.4,65z"/>
</svg>